<?xml version="1.0" encoding="utf-8"?>
<!-- Generator: Adobe Illustrator 28.2.0, SVG Export Plug-In . SVG Version: 6.00 Build 0)  -->
<svg version="1.1" xmlns="http://www.w3.org/2000/svg" xmlns:xlink="http://www.w3.org/1999/xlink" x="0px" y="0px"
	 viewBox="0 0 1549.15 1410.19" style="enable-background:new 0 0 1549.15 1410.19;" xml:space="preserve">
<style type="text/css">
	.st0{fill:#2E3192;}
	.st1{font-family:'Rowdies-Regular';}
	.st2{font-size:65px;}
	.st3{fill:#1F99ED;}
	.st4{font-size:100px;}
	.st5{font-size:80px;}
	.st6{fill:#231F20;}
</style>
<g id="copywritings">
	<text transform="matrix(1 0 0 1 350.125 1090.174)" class="st0 st1 st2">Success of your Dream</text>
</g>
<g id="FOU">
	<text transform="matrix(1 0 0 1 214.5322 995.2019)" class="st3 st1 st4">onefocus fou</text>
</g>
<g id="Ndation">
	<text transform="matrix(1 0 0 1 1000.8479 922.0724)" class="st0 st1 st5">ndation</text>
</g>
<g id="Circle_1">
	<g>
		<path class="st6" d="M69.62,716.82c-5.21-272.21,146.46-523.9,394.44-639.02c103.49-48.18,219.15-69.82,333.07-64
			c194.46,13.15,392.63,108.23,516.84,259.71c142.76,173.37,172.32,421.36,107.74,632.49c-41.33,135.77-123.79,257.58-231.12,349.94
			c-22.8,19.67-46.57,38.17-71.27,55.3c47.98-36.06,92.58-76.69,132.08-121.84c78.96-89.65,136.81-197.94,165.36-314.01
			c45.52-183.29,20.55-392.55-87.55-549.84C1213.07,158.5,1008.05,51.69,807.01,33.81c-77.56-6.08-156.18,1.9-231.36,21.68
			c-28.46,7.49-57.04,17.32-84.3,28.43C233.91,190.3,73.98,440.21,69.62,716.82L69.62,716.82z"/>
	</g>
</g>
<g id="Circle_2">
	<g>
		<path class="st6" d="M69.62,716.82c-5.21-272.21,146.46-523.9,394.44-639.02c103.49-48.18,219.15-69.82,333.07-64
			c194.46,13.15,392.63,108.23,516.84,259.71c142.76,173.37,172.32,421.36,107.74,632.49c-41.33,135.77-123.79,257.58-231.12,349.94
			c-22.8,19.67-46.57,38.17-71.27,55.3c47.98-36.06,92.58-76.69,132.08-121.84c78.96-89.65,136.81-197.94,165.36-314.01
			c45.52-183.29,20.55-392.55-87.55-549.84C1213.07,158.5,1008.05,51.69,807.01,33.81c-77.56-6.08-156.18,1.9-231.36,21.68
			c-28.46,7.49-57.04,17.32-84.3,28.43C233.91,190.3,73.98,440.21,69.62,716.82L69.62,716.82z"/>
	</g>
	<g>
		<path class="st6" d="M918.96,1338.9c-37.35,13.63-76.85,21.67-116.43,25.15c-188.55,15.54-382.15-59.95-514.05-195.12
			c-76.13-77.89-129.71-177.23-153.07-283.47c-4.61-20.65-8.05-41.99-10.57-63c-0.64-6.95-1.44-14.21-2.02-21.16
			c1.3,6.87,2.66,13.97,3.93,20.86c0.54,2.28,2.13,9.96,2.7,12.43c5.74,27.02,13.7,55.18,22.73,81.36
			c70.7,206.42,242.64,355.16,450.65,413.8C705.1,1358.48,815.42,1365.75,918.96,1338.9L918.96,1338.9z"/>
	</g>
</g>
<g id="Line">
	<path class="st6" d="M889.32,1177.92l-7.09,21.22l6.56,16.4l24.13,14.09l32.19,13.79l34.74,17.4l18.64,29.75l-32.26,17.94h-42.07
		l-77.24-43.47l-63.02-65.26l-13.65-1.71l-111.38,13.62l-84.5,14.09l-68.61-14.19c-118.34-21.28-152.81-85.37-154.21-88.08
		l8.94-4.62l0.84-0.43l8.03-4.25c0,0,0,0.03,0.03,0.07c1.27,2.34,33.77,58.47,140.19,77.61l65.19,13.49l81.46-13.55l114.05-13.99
		l23.16,2.91l65.9,68.24l70.11,39.46h31.59l9.2-5.12l-4.42-7.06l-29.45-14.73l-33.07-14.26l-30.59-17.84l-11.85-29.65l11.31-34.04
		l35.58-27.34l65.63,7.3h55.82l65.59-15.86l4.72,19.54l-67.94,16.4l-59.84-0.07l-58.17-6.46L889.32,1177.92z"/>
</g>
<g id="_x31_">
	<g>
		<polygon class="st6" points="728.78,258.42 600.67,258.42 420.35,346.87 420.35,494.76 536.98,450.76 534.94,903.22 534.94,904.5 
			592.47,904.5 692.93,436.93 693.07,436.4 621.65,339.81 728.78,343.83 		"/>
	</g>
</g>
<g id="F">
	<polygon class="st3" points="838.01,458.92 819.17,572.98 986.7,572.98 844.77,678.93 790.96,678.93 745.95,896.87 612.45,896.87 
		711.88,438.97 711.98,438.44 656.26,358.12 1054.44,358.12 1022.21,516.25 883.63,516.25 896.91,459.99 	"/>
</g>
</svg>
